# xmcd CD database file
#
# Track frame offsets:
#	150
#	21902
#	44087
#	65402
#
# Disc length: 1117 seconds
#
# Revision: 0
# Processed by: cddbd v1.5PL3 Copyright (c) Steve Scherf et al.
# Submitted via: CDex 1.50
#
DISCID=34045b04
DTITLE=川村結花 - 朝焼けの歌 〜秋・冬盤〜
DYEAR=2002
DGENRE=JPop
TTITLE0=朝焼けの歌
TTITLE1=夕日が沈んだら
TTITLE2=誰よりも遠くから
TTITLE3=悩みの丘
EXTD=YEAR: 2002
EXTT0=
EXTT1=
EXTT2=
EXTT3=
PLAYORDER=
